<svg xmlns="http://www.w3.org/2000/svg" viewBox="0 0 1200 675">
  <rect width="1200" height="675" rx="36" fill="#f7f1e3"/>
  <circle cx="1010" cy="135" r="128" fill="#e5a93f" opacity="0.16"/>
  <circle cx="168" cy="548" r="150" fill="#5b8def" opacity="0.10"/>
  <path d="M88 574 C270 500 356 610 516 540 S810 455 1110 535" fill="none" stroke="#d8cbb2" stroke-width="5" stroke-linecap="round" opacity="0.65"/>
  <g stroke="#1f2a44" stroke-width="8" stroke-linecap="round" stroke-linejoin="round" fill="none">
    <rect x="320" y="220" width="560" height="320" rx="28" fill="#fffaf0"/>
    <path d="M320 306 h560 M506 306 v234 M694 306 v234"/>
    <path d="M376 266 h112 M544 266 h112 M712 266 h112"/>
    <circle cx="414" cy="386" r="34" fill="#fffaf0"/>
    <circle cx="600" cy="386" r="34" fill="#fffaf0"/>
    <circle cx="786" cy="386" r="34" fill="#fffaf0"/>
    <path d="M384 482 h60 M570 482 h60 M756 482 h60"/>
    <path d="M414 420 v36 M600 420 v36 M786 420 v36" stroke="#d86432"/>
  </g>
</svg>
